# xmcd
#
# Track frame offsets:
#	150
#	14604
#	32458
#	52396
#	67752
#	87519
#	104907
#	124670
#	138761
#	158371
#	173416
#
# Disc length: 2321 seconds
#
# Revision: 0
# Processed by: cddbd v1.5.2PL0 Copyright (c) Steve Scherf et al.
# Submitted via: EasyCDDAExtractor 11.9.9.666
#
DISCID=89090f0b
DTITLE=Monkey Grip - The Full Monkey
DYEAR=1900
DGENRE=Country Blues
TTITLE0=Ain't No Cows in Cowtown
TTITLE1=Yokohama Mama
TTITLE2=Too Late
TTITLE3=California Blues
TTITLE4=Goin' to Brownsville
TTITLE5=Copperhead Road
TTITLE6=The Van Man
TTITLE7=You Picked Me Up
TTITLE8=Talkin' About a Fool
TTITLE9=Blue River Road
TTITLE10=(unnamed track)
EXTD=
EXTT0=
EXTT1=
EXTT2=
EXTT3=
EXTT4=
EXTT5=
EXTT6=
EXTT7=
EXTT8=
EXTT9=
EXTT10=
PLAYORDER=
